<mxfile host="app.diagrams.net" modified="2024-02-14T00:20:11.340Z" agent="Mozilla/5.0 (Windows NT 10.0; Win64; x64) AppleWebKit/537.36 (KHTML, like Gecko) Chrome/121.0.0.0 Safari/537.36 Edg/121.0.0.0" etag="ZFvWJhOgarmNVsoVxlcP" version="23.1.3" type="device">
  <diagram id="C5RBs43oDa-KdzZeNtuy" name="Page-1">
    <mxGraphModel dx="1661" dy="635" grid="1" gridSize="10" guides="1" tooltips="1" connect="1" arrows="1" fold="1" page="1" pageScale="1" pageWidth="827" pageHeight="1169" math="0" shadow="0">
      <root>
        <mxCell id="WIyWlLk6GJQsqaUBKTNV-0" />
        <mxCell id="WIyWlLk6GJQsqaUBKTNV-1" parent="WIyWlLk6GJQsqaUBKTNV-0" />
        <mxCell id="rkIwhC8510pZdrh16rV0-24" value="&lt;h1&gt;GSI1&lt;/h1&gt;&lt;p&gt;PK: Users&lt;br&gt;SK: MetaUserName&lt;/p&gt;" style="text;html=1;spacing=5;spacingTop=-20;whiteSpace=wrap;overflow=hidden;rounded=0;" vertex="1" parent="WIyWlLk6GJQsqaUBKTNV-1">
          <mxGeometry x="10" y="260" width="190" height="120" as="geometry" />
        </mxCell>
        <mxCell id="rkIwhC8510pZdrh16rV0-25" value="&lt;h1&gt;GSI2&lt;/h1&gt;&lt;p&gt;&lt;span style=&quot;background-color: initial;&quot;&gt;PK: Games&lt;br&gt;SK: Game.Name_MetaUserName&lt;/span&gt;&lt;/p&gt;&lt;p&gt;Property:GameId&lt;/p&gt;" style="text;html=1;spacing=5;spacingTop=-20;whiteSpace=wrap;overflow=hidden;rounded=0;" vertex="1" parent="WIyWlLk6GJQsqaUBKTNV-1">
          <mxGeometry x="10" y="380" width="230" height="120" as="geometry" />
        </mxCell>
        <mxCell id="rkIwhC8510pZdrh16rV0-26" value="&lt;h1&gt;How to get a Referral for a Game&lt;/h1&gt;&lt;p&gt;Input: GameName&lt;br&gt;&lt;/p&gt;&lt;p&gt;Query (GSI2)&lt;br&gt;&lt;br&gt;PK: Games&lt;br&gt;SK: StartsWith(GameName)&lt;br&gt;&lt;br&gt;Returns a list, select a random MetaUserName + GameId&lt;/p&gt;" style="text;html=1;spacing=5;spacingTop=-20;whiteSpace=wrap;overflow=hidden;rounded=0;" vertex="1" parent="WIyWlLk6GJQsqaUBKTNV-1">
          <mxGeometry x="280" y="250" width="190" height="290" as="geometry" />
        </mxCell>
        <mxCell id="rkIwhC8510pZdrh16rV0-27" value="&lt;h1&gt;How to get a Referral for a Device&lt;/h1&gt;&lt;p&gt;Input:&amp;nbsp;&lt;br&gt;&lt;/p&gt;&lt;p&gt;Query (GSI1)&lt;br&gt;&lt;br&gt;PK: Users&lt;br&gt;SK:&amp;nbsp;&lt;br&gt;&lt;br&gt;Returns a list, select a random MetaUserName&lt;/p&gt;" style="text;html=1;spacing=5;spacingTop=-20;whiteSpace=wrap;overflow=hidden;rounded=0;" vertex="1" parent="WIyWlLk6GJQsqaUBKTNV-1">
          <mxGeometry x="490" y="250" width="190" height="290" as="geometry" />
        </mxCell>
        <mxCell id="rkIwhC8510pZdrh16rV0-28" value="&lt;h1&gt;How to get a Game from its Id&lt;/h1&gt;&lt;p&gt;Input: GameId&lt;br&gt;&lt;/p&gt;&lt;p&gt;Query (LSI1 from GSI2)&lt;br&gt;&lt;br&gt;PK: Games&lt;br&gt;SK: EqualsTo(GameId)&lt;br&gt;&lt;br&gt;Returns GameName&lt;/p&gt;" style="text;html=1;spacing=5;spacingTop=-20;whiteSpace=wrap;overflow=hidden;rounded=0;" vertex="1" parent="WIyWlLk6GJQsqaUBKTNV-1">
          <mxGeometry x="280" y="500" width="190" height="290" as="geometry" />
        </mxCell>
        <mxCell id="rkIwhC8510pZdrh16rV0-29" value="&lt;h1&gt;LSI1 from GSI2&lt;/h1&gt;&lt;p&gt;&lt;span style=&quot;background-color: initial;&quot;&gt;PK: Games&lt;br&gt;SK: GameId&lt;/span&gt;&lt;/p&gt;&lt;p&gt;Property:GameName&lt;br&gt;&lt;/p&gt;" style="text;html=1;spacing=5;spacingTop=-20;whiteSpace=wrap;overflow=hidden;rounded=0;" vertex="1" parent="WIyWlLk6GJQsqaUBKTNV-1">
          <mxGeometry x="10" y="520" width="230" height="120" as="geometry" />
        </mxCell>
      </root>
    </mxGraphModel>
  </diagram>
</mxfile>
